<svg xmlns="http://www.w3.org/2000/svg" fill="none" viewBox="0 0 1088 108">
  <g fill="currentColor" class="animated-logo">
    <path
      d="M45.52 82.72.28 52.48v-8.64L45.52 13.6v11.16L10.48 47.92v.48l35.04 23.16v11.16z"
      class="Left-Caret"
    />
    <path
      d="M63.713 88V9.4h13.92l10.2 32.04 3.48 12.24h.48l3.48-12.24 10.2-32.04h13.92V88h-11.04V52.6c0-2 .08-4.36.24-7.08.16-2.72.32-5.48.48-8.28.24-2.8.44-5.48.6-8.04.24-2.64.44-4.88.6-6.72h-.36l-4.92 16.92-9.96 27.72h-7.44l-9.84-27.72-4.8-16.92h-.36c.24 1.84.44 4.08.6 6.72.24 2.56.44 5.24.6 8.04.24 2.8.4 5.56.48 8.28.16 2.72.24 5.08.24 7.08V88h-10.8z"
      class="M"
    />
    <path
      d="M161.826 88V38.92h-26.28v-9.6h38.16V88h-11.88zm4.92-70.08c-2.56 0-4.68-.76-6.36-2.28-1.68-1.6-2.52-3.68-2.52-6.24s.84-4.6 2.52-6.12c1.68-1.6 3.8-2.4 6.36-2.4 2.56 0 4.68.8 6.36 2.4 1.68 1.52 2.52 3.56 2.52 6.12s-.84 4.64-2.52 6.24c-1.68 1.52-3.8 2.28-6.36 2.28z"
      class="I"
    />
    <path
      d="M206.419 88V2.92h11.88v55.44h.48l28.92-29.04h13.32l-23.04 23.28 25.92 35.4h-13.08l-20.16-28.08-12.36 12.48V88h-11.88z"
      class="K"
    />
    <path
      d="M303.812 89.44c-4.479 0-8.64-.68-12.48-2.04-3.84-1.36-7.199-3.36-10.079-6-2.88-2.64-5.16-5.88-6.84-9.72-1.6-3.84-2.401-8.2-2.401-13.08 0-4.8.841-9.08 2.521-12.84 1.68-3.84 3.88-7.08 6.6-9.72a28.58 28.58 0 0 1 9.599-6c3.6-1.44 7.36-2.16 11.28-2.16 4.32 0 8.161.68 11.521 2.04 3.36 1.36 6.159 3.28 8.399 5.76 2.32 2.4 4.08 5.32 5.28 8.76 1.2 3.36 1.8 7.08 1.8 11.16 0 1.28-.04 2.48-.12 3.6-.08 1.12-.199 2.08-.359 2.88h-44.641c.64 6.08 2.92 10.6 6.84 13.56 4 2.96 8.88 4.44 14.64 4.44 3.28 0 6.28-.44 9-1.32 2.72-.96 5.401-2.24 8.041-3.84l4.199 7.56c-3.04 2-6.48 3.68-10.32 5.04-3.76 1.28-7.919 1.92-12.48 1.92zm-1.44-52.2c-2.24 0-4.36.36-6.36 1.08-2 .64-3.8 1.64-5.4 3-1.6 1.36-2.959 3.04-4.079 5.04-1.12 2-1.92 4.32-2.4 6.96h34.199c-.4-5.36-2.039-9.36-4.919-12-2.8-2.72-6.481-4.08-11.041-4.08z"
      class="E"
    />
    <path
      d="M411.479 88V9.4h13.92l10.2 32.04 3.48 12.24h.48l3.48-12.24 10.2-32.04h13.92V88h-11.04V52.6c0-2 .08-4.36.24-7.08.16-2.72.32-5.48.48-8.28.24-2.8.44-5.48.6-8.04.24-2.64.44-4.88.6-6.72h-.36l-4.92 16.92-9.96 27.72h-7.44l-9.84-27.72-4.8-16.92h-.36c.24 1.84.44 4.08.6 6.72.24 2.56.44 5.24.6 8.04.24 2.8.4 5.56.48 8.28.16 2.72.24 5.08.24 7.08V88h-10.8z"
      class="M2"
    />
    <path
      d="M514.272 89.44c-4.56 0-8.84-.68-12.84-2.04-3.92-1.36-7.32-3.36-10.2-6-2.88-2.64-5.16-5.84-6.84-9.6-1.6-3.84-2.4-8.2-2.4-13.08 0-4.88.88-9.24 2.64-13.08 1.76-3.84 4.16-7.08 7.2-9.72 3.04-2.64 6.52-4.64 10.44-6 4-1.36 8.24-2.04 12.72-2.04 4.8 0 9 .84 12.6 2.52 3.6 1.6 6.6 3.56 9 5.88l-5.76 7.56c-2.32-1.92-4.72-3.4-7.2-4.44-2.48-1.12-5.16-1.68-8.04-1.68-3.12 0-6 .52-8.64 1.56-2.64.96-4.92 2.36-6.84 4.2-1.84 1.84-3.28 4.08-4.32 6.72-1.04 2.56-1.56 5.4-1.56 8.52 0 3.12.48 6 1.44 8.64 1.04 2.56 2.48 4.76 4.32 6.6 1.92 1.84 4.16 3.28 6.72 4.32 2.56.96 5.4 1.44 8.52 1.44 3.6 0 6.8-.68 9.6-2.04 2.88-1.36 5.48-3 7.8-4.92l5.16 7.68c-3.36 2.88-7.04 5.12-11.04 6.72-4 1.52-8.16 2.28-12.48 2.28z"
      class="C"
    />
    <path
      d="M583.105 89.44c-4.96 0-9.56-.88-13.8-2.64a31.876 31.876 0 0 1-11.04-7.92c-3.04-3.52-5.44-7.76-7.2-12.72-1.68-5.04-2.52-10.8-2.52-17.28 0-6.4.88-12.12 2.64-17.16 1.76-5.12 4.2-9.44 7.32-12.96 3.12-3.52 6.84-6.2 11.16-8.04 4.32-1.84 9-2.76 14.04-2.76 5.2 0 9.6 1.04 13.2 3.12 3.6 2 6.56 4.2 8.88 6.6l-6.72 7.56c-1.84-2-3.96-3.64-6.36-4.92-2.4-1.28-5.4-1.92-9-1.92-3.36 0-6.44.72-9.24 2.16-2.8 1.36-5.2 3.36-7.2 6-2 2.56-3.56 5.72-4.68 9.48-1.12 3.68-1.68 7.84-1.68 12.48 0 9.44 1.96 16.88 5.88 22.32 3.92 5.44 9.6 8.16 17.04 8.16 2.4 0 4.64-.36 6.72-1.08 2.16-.72 3.92-1.72 5.28-3V56.2h-14.52v-9.84h25.56V80.2c-2.56 2.56-5.92 4.76-10.08 6.6-4.08 1.76-8.64 2.64-13.68 2.64z"
      class="G"
    />
    <path
      d="M628.538 88V29.32h9.84l.96 13.68h.36c3.04-4.8 6.72-8.52 11.04-11.16 4.4-2.64 9.24-3.96 14.52-3.96 2.32 0 4.36.2 6.12.6 1.76.32 3.56.92 5.4 1.8l-2.64 10.2c-2-.64-3.72-1.12-5.16-1.44-1.44-.32-3.28-.48-5.52-.48-4.24 0-8.32 1.2-12.24 3.6-3.92 2.4-7.52 6.56-10.8 12.48V88h-11.88z"
      class="R"
    />
    <path
      d="M710.451 89.44c-2.8 0-5.44-.4-7.92-1.2-2.4-.8-4.48-1.92-6.24-3.36a17.274 17.274 0 0 1-4.2-5.4c-.96-2.08-1.44-4.4-1.44-6.96 0-3.28.76-6.16 2.28-8.64 1.6-2.48 4.04-4.6 7.32-6.36 3.36-1.76 7.64-3.2 12.84-4.32 5.28-1.12 11.6-1.96 18.96-2.52-.16-3.6-1.36-6.68-3.6-9.24-2.16-2.56-5.84-3.84-11.04-3.84-3.6 0-7.12.68-10.56 2.04-3.36 1.36-6.48 2.88-9.36 4.56l-4.44-8.04c1.6-.96 3.4-1.92 5.4-2.88 2-1.04 4.12-1.96 6.36-2.76 2.32-.8 4.68-1.44 7.08-1.92 2.48-.48 5-.72 7.56-.72 8.16 0 14.28 2.2 18.36 6.6 4.08 4.4 6.12 10.48 6.12 18.24V88h-9.72l-.96-7.56h-.36c-3.12 2.4-6.64 4.52-10.56 6.36-3.84 1.76-7.8 2.64-11.88 2.64zm3.36-9.48c3.12 0 6.16-.68 9.12-2.04 3.04-1.36 6.08-3.28 9.12-5.76V58.24c-5.76.48-10.56 1.12-14.4 1.92-3.84.72-6.92 1.68-9.24 2.88-2.24 1.12-3.84 2.4-4.8 3.84s-1.44 3.04-1.44 4.8c0 2.96 1.12 5.08 3.36 6.36 2.32 1.28 5.08 1.92 8.28 1.92z"
      class="A"
    />
    <path
      d="M798.124 89.44c-4.32 0-8-.6-11.04-1.8-2.96-1.2-5.36-2.88-7.2-5.04-1.76-2.16-3.04-4.72-3.84-7.68-.8-3.04-1.2-6.4-1.2-10.08V38.92h-16.08v-9l16.56-.6 1.56-18.6h9.84v18.6h27.72v9.6h-27.72v25.92c0 5.04 1 8.8 3 11.28 2.08 2.48 5.8 3.72 11.16 3.72 2.56 0 4.92-.2 7.08-.6 2.16-.48 4.28-1.12 6.36-1.92l2.4 8.76c-2.64.88-5.44 1.64-8.4 2.28-2.96.72-6.36 1.08-10.2 1.08z"
      class="T"
    />
    <path
      d="M831.198 88V2.92h11.879v22.56l-.719 13.2h.359c2.8-3.04 5.88-5.6 9.24-7.68 3.44-2.08 7.44-3.12 12-3.12 6.88 0 11.92 2.04 15.12 6.12 3.2 4.08 4.801 9.96 4.801 17.64V88h-11.88V53.2c0-5.12-.92-8.88-2.76-11.28-1.84-2.48-5-3.72-9.48-3.72-3.12 0-5.92.8-8.4 2.4-2.48 1.52-5.241 3.84-8.281 6.96V88h-11.879z"
      class="H"
    />
    <path
      d="M970.904 107.2 1010.26 2.8h10.32l-39.356 104.4h-10.32z"
      class="Closing-Bracket"
    />
    <path
      d="M1041.78 82.72V71.56l35.04-23.16v-.48l-35.04-23.16V13.6l45.24 30.24v8.64l-45.24 30.24z"
      class="Right-Caret"
    />
  </g>
</svg>
